<?xml version="1.0" standalone="no"?>
<!DOCTYPE svg PUBLIC "-//W3C//DTD SVG 20010904//EN"
 "http://www.w3.org/TR/2001/REC-SVG-20010904/DTD/svg10.dtd">
<svg version="1.0" xmlns="http://www.w3.org/2000/svg"
 width="718.000000pt" height="451.000000pt" viewBox="0 0 718.000000 451.000000"
 preserveAspectRatio="xMidYMid meet">

<g transform="translate(0.000000,451.000000) scale(0.100000,-0.100000)"
fill="#000000" stroke="none">
<path d="M3596 3360 c-14 -22 -31 -40 -36 -40 -6 0 -10 -7 -10 -15 0 -9 -11
-26 -25 -38 -14 -12 -31 -38 -38 -57 -7 -19 -46 -88 -87 -152 l-75 -116 -102
-4 c-56 -2 -229 1 -385 6 -310 10 -802 -4 -821 -23 -6 -6 -49 -11 -97 -11 -47
0 -90 -4 -96 -9 -5 -4 -56 -14 -114 -20 -58 -7 -149 -21 -202 -32 -53 -10
-122 -19 -152 -19 -38 0 -58 -5 -63 -15 -6 -10 -28 -15 -67 -17 -31 -1 -60 -6
-62 -10 -3 -4 -27 -8 -54 -8 -27 0 -52 -4 -55 -10 -3 -5 -28 -10 -54 -10 -29
0 -53 -6 -60 -14 -6 -7 -39 -17 -74 -20 -60 -7 -127 -42 -127 -66 0 -5 39 -47
87 -92 209 -198 273 -270 273 -311 0 -13 -271 -2 -325 13 -49 13 -84 30 -107
48 -20 17 -48 9 -48 -12 0 -13 90 -97 176 -163 66 -52 179 -107 349 -173 88
-34 174 -68 190 -75 17 -8 50 -19 75 -26 25 -6 56 -17 70 -24 14 -7 85 -32
158 -54 l132 -42 0 -64 c0 -35 -4 -67 -10 -70 -6 -4 -10 -70 -10 -164 0 -139
3 -165 21 -210 12 -28 25 -51 29 -51 12 0 156 96 256 170 132 98 164 149 164
263 0 26 3 47 8 47 4 0 86 -11 182 -25 96 -14 207 -30 245 -35 185 -26 358
-30 603 -14 134 8 255 20 270 25 14 5 28 6 32 2 8 -9 92 -210 110 -263 7 -19
16 -44 21 -55 4 -11 13 -40 20 -65 6 -25 23 -60 37 -79 15 -19 30 -39 34 -44
4 -6 20 -4 41 6 19 10 39 17 44 17 12 1 53 37 53 47 0 5 11 20 24 32 22 21 66
99 79 142 3 9 -5 29 -19 45 -13 16 -23 33 -24 38 0 4 -11 21 -25 38 -14 16
-25 37 -25 45 0 9 -23 43 -51 75 l-50 58 118 0 c65 0 172 5 238 11 66 6 170
14 230 19 61 5 130 13 154 18 l44 10 90 -97 c246 -262 389 -373 424 -329 6 7
25 87 43 178 18 91 38 179 45 195 58 140 85 219 80 236 -4 10 -18 22 -33 25
-47 10 -126 40 -129 50 -4 11 37 25 167 60 52 14 120 32 150 41 30 8 73 17 95
20 22 3 45 9 51 14 7 6 55 7 110 4 l98 -6 181 -117 c99 -64 221 -137 270 -162
107 -54 249 -104 270 -96 12 4 15 24 15 93 0 114 -19 264 -36 284 -8 8 -14 21
-14 27 0 7 -4 12 -10 12 -6 0 -6 9 0 26 6 14 10 38 10 53 0 30 -34 117 -48
123 -5 2 -16 30 -25 62 -15 53 -15 62 -2 76 22 24 19 66 -6 83 l-20 15 23 18
c20 16 23 26 20 64 -2 25 -8 50 -12 55 -4 6 -11 33 -15 61 -5 40 -3 53 10 64
11 9 14 22 9 49 -8 43 -28 69 -58 73 -22 3 -22 3 -10 79 7 43 -8 77 -42 89
-20 8 -24 16 -22 42 2 26 -1 33 -14 33 -10 0 -90 -60 -179 -134 -226 -188
-372 -296 -458 -339 -73 -36 -78 -37 -208 -40 -132 -4 -133 -4 -142 20 -6 16
-5 28 6 39 12 15 11 17 -11 23 -13 3 -87 -1 -163 -9 -214 -24 -423 -29 -543
-16 -137 16 -462 70 -469 78 -4 3 12 3 35 1 41 -6 112 20 98 35 -4 4 3 19 17
33 l23 25 -65 62 c-110 105 -268 245 -347 309 -39 31 -81 48 -122 48 -22 0
-40 4 -40 8 0 7 -68 42 -82 42 -3 0 -17 -18 -32 -40z"/>
</g>
</svg>
