<?xml version="1.0" standalone="no"?>
<!DOCTYPE svg PUBLIC "-//W3C//DTD SVG 20010904//EN"
 "http://www.w3.org/TR/2001/REC-SVG-20010904/DTD/svg10.dtd">
<svg version="1.0" xmlns="http://www.w3.org/2000/svg"
 width="926.000000pt" height="360.000000pt" viewBox="0 0 926.000000 360.000000"
 preserveAspectRatio="xMidYMid meet">

<g transform="translate(0.000000,360.000000) scale(0.100000,-0.100000)"
fill="#000000" stroke="none">
<path d="M5761 3570 c-15 -43 -48 -56 -96 -36 -20 9 -39 16 -40 16 -1 0 -5
-13 -8 -29 -10 -51 -33 -64 -99 -58 -45 4 -58 2 -58 -8 0 -29 -24 -64 -50 -75
-22 -9 -35 -8 -65 4 -47 20 -45 21 -45 -9 0 -14 -13 -39 -29 -57 -27 -30 -34
-33 -85 -32 -55 2 -56 1 -56 -26 0 -40 -22 -53 -80 -48 -50 5 -50 5 -50 -25 0
-51 -93 -122 -115 -87 -12 20 -25 9 -25 -22 0 -39 -68 -148 -92 -148 -14 0
-18 -11 -20 -62 -3 -61 -4 -63 -36 -72 -30 -8 -32 -11 -26 -42 3 -18 3 -41 -1
-52 -7 -23 -97 -72 -132 -72 -26 0 -27 -3 -11 -29 9 -15 8 -24 -4 -44 -26 -39
-83 -60 -156 -58 -76 3 -232 27 -242 38 -4 4 -40 58 -80 118 -159 239 -351
480 -448 562 -83 70 -145 91 -172 58 -7 -8 -26 -15 -43 -15 -21 0 -39 -10 -61
-33 -17 -18 -46 -39 -64 -45 -18 -6 -45 -20 -59 -32 -14 -11 -32 -20 -40 -20
-8 0 -32 -18 -54 -40 -22 -22 -46 -40 -53 -40 -7 0 -25 -13 -41 -30 -16 -16
-34 -30 -40 -30 -6 0 -37 -15 -68 -34 -31 -19 -69 -37 -84 -40 -16 -4 -48 -22
-72 -41 -24 -19 -50 -35 -58 -35 -8 0 -24 -11 -36 -24 -12 -12 -38 -26 -57
-30 -55 -10 -152 -52 -190 -83 -19 -15 -48 -34 -65 -41 -16 -7 -39 -21 -50
-31 -11 -10 -33 -25 -50 -32 -16 -8 -36 -27 -43 -42 -8 -16 -21 -27 -33 -27
-11 0 -24 -11 -31 -25 -14 -31 -5 -45 117 -175 52 -56 95 -106 95 -110 0 -29
-440 -66 -597 -50 -76 8 -114 23 -614 240 -560 243 -653 279 -796 306 -175 32
-267 -13 -249 -123 3 -21 10 -74 15 -118 5 -44 16 -98 25 -119 9 -21 16 -59
16 -85 1 -25 8 -64 16 -86 9 -22 22 -78 29 -125 8 -47 19 -99 25 -115 7 -17
13 -49 15 -72 1 -23 12 -60 23 -82 l21 -39 -20 -18 c-17 -15 -20 -28 -17 -70
2 -44 -1 -56 -21 -78 -19 -20 -26 -41 -31 -98 -4 -48 -14 -85 -28 -109 -12
-20 -27 -62 -33 -95 -6 -32 -18 -67 -26 -76 -21 -23 -42 -86 -43 -126 0 -18
-16 -64 -35 -102 l-35 -70 27 -6 c38 -10 283 3 393 21 331 54 708 225 980 444
71 57 93 69 217 111 159 55 230 65 453 65 220 0 304 -11 462 -61 92 -29 92
-30 -13 -99 -49 -32 -71 -53 -75 -73 -4 -15 -11 -33 -16 -39 -16 -20 13 -166
37 -193 8 -9 15 -31 15 -48 0 -18 10 -42 25 -60 19 -23 23 -36 18 -65 -4 -26
0 -44 12 -63 10 -16 15 -37 12 -53 -3 -14 0 -42 7 -62 7 -19 11 -52 8 -72 -3
-29 1 -41 22 -62 15 -15 26 -37 26 -53 0 -35 17 -52 51 -52 39 0 270 81 383
135 187 89 468 260 632 384 l66 50 37 -15 c613 -264 1228 -394 1861 -394 196
0 457 20 599 46 93 17 111 14 111 -16 0 -14 -28 -39 -100 -86 -55 -37 -102
-76 -106 -86 -3 -11 -3 -34 0 -52 5 -26 1 -37 -19 -56 -30 -28 -32 -60 -5 -85
18 -16 18 -19 3 -42 -14 -21 -15 -30 -4 -59 7 -19 10 -48 6 -64 -6 -28 18
-100 35 -100 4 0 12 -12 19 -26 10 -24 16 -26 49 -20 93 15 436 217 513 302
78 87 160 232 233 415 l47 115 61 13 c33 7 128 37 212 68 216 78 259 90 371
103 292 31 692 166 1120 375 332 163 419 220 456 300 33 71 19 177 -28 214
-30 24 -37 26 -418 132 -447 123 -768 203 -1025 254 -129 26 -286 62 -348 81
-145 43 -350 95 -517 130 -71 14 -137 30 -146 35 -9 5 -26 51 -43 121 -46 185
-245 697 -288 740 -25 25 -33 23 -65 -12 -17 -19 -36 -30 -53 -30 -42 0 -109
59 -146 127 l-18 32 -32 -37 c-32 -36 -33 -37 -61 -22 -15 8 -46 43 -69 77
l-40 62 -28 -35 c-36 -45 -68 -45 -111 1 l-33 35 -11 -30z"/>
</g>
</svg>
