<?xml version="1.0" standalone="no"?>
<!DOCTYPE svg PUBLIC "-//W3C//DTD SVG 20010904//EN"
 "http://www.w3.org/TR/2001/REC-SVG-20010904/DTD/svg10.dtd">
<svg version="1.0" xmlns="http://www.w3.org/2000/svg"
 width="700.000000pt" height="700.000000pt" viewBox="0 0 700.000000 700.000000"
 preserveAspectRatio="xMidYMid meet">
<metadata>
Created by potrace 1.11, written by Peter Selinger 2001-2013
</metadata>
<g transform="translate(0.000000,700.000000) scale(0.100000,-0.100000)"
fill="#000000" stroke="none">
<path d="M3498 5763 c-2 -4 -4 -191 -4 -416 1 -446 6 -410 -59 -421 -16 -3
-43 -8 -58 -12 -16 -3 -38 -7 -50 -9 -39 -4 -263 -64 -364 -96 -234 -75 -549
-213 -694 -305 -21 -13 -41 -24 -44 -24 -5 0 -66 -38 -175 -108 -51 -33 -240
-167 -284 -202 -64 -51 -242 -205 -301 -261 -38 -37 -74 -68 -78 -69 -4 0 -56
59 -114 132 -58 73 -118 149 -134 168 -15 19 -60 76 -99 125 -129 163 -292
297 -460 380 -30 15 -64 31 -74 37 -36 19 -231 86 -270 92 -21 4 -41 8 -45 10
-7 5 -114 18 -156 19 l-30 2 0 -1305 0 -1305 25 1 c194 9 444 92 643 213 53
33 108 69 123 80 88 69 155 137 237 240 50 64 96 121 102 127 5 6 24 28 40 50
17 21 62 77 100 124 39 48 79 99 90 113 11 15 24 27 29 27 4 0 40 -30 78 -67
110 -106 264 -237 324 -276 18 -12 36 -29 39 -37 4 -8 6 -191 6 -406 l0 -392
62 3 c152 8 289 41 432 105 101 46 244 141 311 208 10 10 35 4 126 -32 122
-47 192 -71 334 -111 106 -30 94 -27 252 -59 68 -13 127 -27 130 -31 4 -4 7
-194 7 -423 l0 -417 60 1 c59 1 165 13 176 20 3 2 21 6 40 9 57 10 176 53 252
91 274 139 495 386 593 664 l22 65 104 21 c159 33 391 95 463 124 11 5 85 34
165 66 304 119 589 278 868 483 202 148 509 431 691 638 87 98 90 82 -44 232
-55 62 -266 273 -336 336 -66 60 -257 216 -313 256 -27 18 -70 49 -95 67 -270
192 -693 402 -1016 505 -81 26 -319 85 -431 107 -59 12 -62 14 -73 52 -21 70
-112 238 -171 316 -214 283 -515 447 -876 478 -40 3 -74 2 -76 -3z"/>
</g>
</svg>
