<?xml version="1.0" standalone="no"?>
<!DOCTYPE svg PUBLIC "-//W3C//DTD SVG 20010904//EN"
 "http://www.w3.org/TR/2001/REC-SVG-20010904/DTD/svg10.dtd">
<svg version="1.0" xmlns="http://www.w3.org/2000/svg"
 width="219.000000pt" height="230.000000pt" viewBox="0 0 219.000000 230.000000"
 preserveAspectRatio="xMidYMid meet">

<g transform="translate(0.000000,230.000000) scale(0.100000,-0.100000)"
fill="#000000" stroke="none">
<path d="M860 1340 c-42 -28 -52 -30 -145 -30 -155 -1 -274 -17 -366 -49 -163
-57 -221 -72 -236 -60 -10 9 -13 8 -13 -4 0 -8 -12 -24 -27 -35 -32 -23 -26
-52 11 -52 31 0 44 -17 16 -22 -34 -5 -28 -20 25 -56 36 -24 42 -27 22 -9 -15
15 -27 28 -27 31 0 3 73 4 163 2 177 -4 224 -14 287 -65 63 -50 128 -74 73
-27 -15 13 -25 27 -22 31 4 3 36 1 70 -5 84 -16 274 -16 339 0 50 12 54 11
123 -21 l72 -34 184 -3 c211 -4 322 8 398 42 55 26 61 34 41 54 -23 23 2 24
101 7 94 -17 102 -17 126 -1 38 25 65 75 65 120 0 31 -7 45 -39 77 -24 24 -48
39 -63 39 -13 0 -55 -22 -94 -49 -38 -26 -80 -52 -94 -56 -25 -8 -25 -8 -6 14
35 39 5 52 -179 81 -142 22 -295 50 -359 64 -38 9 -101 19 -140 22 -70 6 -85
3 -188 -41 -15 -6 -16 -2 -11 29 6 35 5 36 -28 35 -20 0 -53 -13 -79 -29z
m-352 -171 c2 -27 -3 -44 -22 -66 -28 -33 -85 -50 -113 -35 -13 8 -8 11 25 17
66 11 113 79 80 114 -11 10 -9 12 7 9 15 -2 21 -12 23 -39z m-281 -11 c-3 -8
-6 -5 -6 6 -1 11 2 17 5 13 3 -3 4 -12 1 -19z"/>
</g>
</svg>
