<?xml version="1.0" standalone="no"?>
<!DOCTYPE svg PUBLIC "-//W3C//DTD SVG 20010904//EN"
 "http://www.w3.org/TR/2001/REC-SVG-20010904/DTD/svg10.dtd">
<svg version="1.0" xmlns="http://www.w3.org/2000/svg"
 width="354.000000pt" height="144.000000pt" viewBox="0 0 354.000000 144.000000"
 preserveAspectRatio="xMidYMid meet">
<metadata>
Created by potrace 1.16, written by Peter Selinger 2001-2019
</metadata>
<g transform="translate(0.000000,144.000000) scale(0.100000,-0.100000)"
fill="#000000" stroke="none">
<path d="M1285 1393 c-149 -18 -445 -85 -445 -100 0 -3 24 -29 54 -58 219
-216 279 -547 147 -820 -44 -92 -118 -194 -167 -232 -19 -14 -34 -29 -34 -33
0 -10 201 -65 320 -87 74 -14 147 -18 330 -18 245 0 296 6 495 56 278 71 608
249 807 437 l37 35 78 -79 c156 -157 320 -262 517 -330 100 -35 99 -35 91 39
-17 154 -58 300 -127 449 l-31 67 47 104 c26 58 57 148 71 200 27 107 50 265
41 275 -10 10 -144 -37 -238 -84 -150 -74 -303 -188 -404 -302 l-41 -46 -79
68 c-282 242 -644 403 -1010 451 -103 13 -376 18 -459 8z"/>
<path d="M745 1256 c-255 -105 -481 -260 -674 -460 l-74 -77 89 -90 c197 -200
448 -367 680 -455 l61 -23 21 72 c44 150 72 346 72 497 0 153 -33 374 -77 512
l-18 57 -80 -33z m-182 -447 c51 -26 73 -91 47 -140 -26 -48 -117 -61 -153
-21 -32 36 -39 72 -20 111 27 54 78 74 126 50z"/>
</g>
</svg>
