<?xml version="1.0" standalone="no"?>
<!DOCTYPE svg PUBLIC "-//W3C//DTD SVG 20010904//EN"
 "http://www.w3.org/TR/2001/REC-SVG-20010904/DTD/svg10.dtd">
<svg version="1.0" xmlns="http://www.w3.org/2000/svg"
 width="354.000000pt" height="90.000000pt" viewBox="0 0 354.000000 90.000000"
 preserveAspectRatio="xMidYMid meet">

<g transform="translate(0.000000,90.000000) scale(0.100000,-0.100000)"
fill="#000000" stroke="none">
<path d="M1090 850 c-74 -10 -159 -23 -189 -29 -29 -6 -56 -11 -58 -11 -3 0
29 -23 71 -51 263 -176 262 -448 -2 -620 -41 -27 -72 -49 -69 -49 2 0 40 -7
83 -15 266 -50 664 -63 914 -31 353 46 635 129 888 261 l103 54 70 -46 c94
-60 232 -125 348 -162 100 -33 258 -67 267 -59 9 10 -25 138 -52 191 -15 28
-45 78 -67 110 l-40 57 32 43 c49 66 100 171 117 243 8 37 13 69 10 72 -7 7
-115 -15 -221 -45 -143 -41 -307 -116 -421 -194 l-40 -27 -126 62 c-266 134
-530 210 -868 251 -179 22 -572 19 -750 -5z"/>
<path d="M740 784 c-160 -42 -350 -114 -483 -180 -93 -48 -247 -143 -247 -154
0 -11 154 -106 247 -154 147 -74 338 -144 497 -183 84 -20 83 -21 126 113 54
169 50 313 -13 482 -36 98 -39 100 -127 76z m-156 -286 c28 -12 40 -38 31 -66
-14 -47 -130 -58 -170 -17 -14 13 -25 29 -25 35 0 6 11 22 25 35 27 28 94 34
139 13z"/>
</g>
</svg>
