<?xml version="1.0" standalone="no"?>
<!DOCTYPE svg PUBLIC "-//W3C//DTD SVG 20010904//EN"
 "http://www.w3.org/TR/2001/REC-SVG-20010904/DTD/svg10.dtd">
<svg version="1.0" xmlns="http://www.w3.org/2000/svg"
 width="12100.000000pt" height="8200.000000pt" viewBox="0 0 12100.000000 8200.000000"
 preserveAspectRatio="xMidYMid meet">

<g transform="translate(0.000000,8200.000000) scale(0.100000,-0.100000)"
fill="#000000" stroke="none">
<path d="M42774 73463 c-424 -791 -1160 -1536 -1803 -1823 -250 -112 -425
-153 -656 -154 -225 -1 -380 36 -561 134 -208 112 -421 315 -581 556 -43 65
-55 92 -63 145 -61 399 -181 454 -362 169 -19 -30 -75 -129 -123 -220 -69
-130 -98 -174 -136 -208 -114 -101 -233 -300 -299 -500 -17 -52 -60 -215 -95
-363 -35 -148 -74 -302 -86 -341 -79 -267 -202 -454 -373 -565 -39 -25 -129
-85 -201 -133 -238 -159 -415 -255 -643 -346 -436 -175 -744 -177 -905 -5 -98
105 -130 225 -125 465 2 112 0 160 -8 163 -7 2 -27 -34 -47 -80 -86 -205 -183
-561 -281 -1027 -47 -227 -61 -279 -99 -360 -180 -386 -282 -756 -482 -1740
-97 -477 -143 -678 -212 -915 -148 -515 -319 -848 -568 -1107 -41 -43 -75 -83
-75 -88 0 -18 -89 -107 -138 -139 -70 -45 -207 -86 -397 -121 -292 -53 -380
-84 -447 -158 -52 -57 -65 -125 -44 -235 8 -45 18 -167 21 -272 45 -1481 213
-3885 420 -6010 18 -192 35 -368 37 -390 l3 -40 -60 -13 c-33 -7 -386 -80
-785 -162 -1806 -371 -2404 -505 -3310 -741 -632 -165 -870 -237 -1260 -379
-480 -175 -931 -368 -1845 -787 -610 -280 -934 -426 -1185 -533 -107 -45 -229
-97 -271 -115 -42 -18 -303 -163 -580 -322 -2687 -1546 -4079 -2284 -5624
-2980 -230 -104 -239 -107 -1365 -453 -1836 -565 -2612 -824 -3505 -1172 -99
-39 -274 -118 -390 -175 -701 -352 -1453 -636 -2730 -1033 -1633 -508 -2073
-658 -2677 -911 -557 -234 -1120 -522 -1329 -681 -187 -142 -380 -244 -819
-433 -471 -202 -617 -279 -786 -411 -179 -139 -301 -317 -353 -515 -38 -144
-43 -125 71 -244 171 -179 304 -279 780 -583 321 -205 446 -292 601 -415 126
-100 293 -265 377 -375 39 -51 94 -106 144 -144 357 -276 677 -566 1436 -1303
256 -249 481 -466 500 -483 19 -16 33 -33 30 -35 -9 -9 -377 -67 -615 -97
-380 -48 -609 -63 -950 -64 -332 0 -492 11 -721 49 -351 59 -464 102 -979 370
-600 313 -851 428 -1148 524 -173 56 -345 97 -507 121 -204 30 -198 31 -265
-42 -69 -76 -128 -192 -151 -294 -24 -110 -15 -304 21 -434 87 -316 268 -614
496 -815 38 -33 98 -103 135 -155 195 -278 496 -588 866 -893 92 -75 113 -87
178 -106 336 -94 597 -262 1130 -727 379 -331 539 -456 678 -530 308 -165 396
-214 652 -359 157 -90 587 -342 955 -562 652 -389 1034 -611 1320 -767 205
-113 653 -337 862 -432 101 -45 202 -96 225 -112 116 -80 487 -273 698 -365
300 -130 581 -233 1270 -465 261 -89 572 -197 690 -242 138 -52 269 -93 365
-116 767 -178 1503 -431 2365 -812 342 -151 589 -268 1240 -583 581 -283 597
-290 745 -328 307 -81 600 -177 1345 -446 995 -358 1500 -493 2062 -550 116
-11 149 -11 215 0 598 104 1206 49 1830 -166 304 -105 513 -199 1233 -554 608
-300 740 -361 985 -458 287 -113 355 -133 550 -157 478 -57 861 -138 1840
-385 823 -208 1178 -284 1603 -345 297 -42 504 -60 772 -66 l235 -6 205 -55
c991 -267 1709 -400 2495 -465 105 -8 331 -13 655 -13 520 1 655 8 1020 56 85
12 168 22 183 22 25 2 33 -7 89 -103 171 -297 367 -692 768 -1555 89 -192 205
-438 257 -545 71 -146 103 -227 129 -320 186 -676 464 -1261 1112 -2340 536
-892 669 -1126 805 -1410 146 -306 294 -677 391 -979 45 -139 50 -150 180
-350 183 -283 235 -366 616 -996 690 -1138 946 -1512 1544 -2255 960 -1192
1940 -1886 2896 -2050 309 -52 646 -49 935 10 l50 10 67 158 c129 302 232 572
548 1432 350 955 536 1402 769 1855 138 267 203 377 281 470 308 368 476 786
535 1324 35 320 31 639 -16 1411 l-20 335 -64 165 c-77 203 -178 484 -342 955
-302 867 -471 1292 -684 1718 -262 523 -531 905 -862 1223 -123 118 -169 154
-297 229 -122 72 -265 169 -420 286 -140 105 -251 198 -783 652 -600 512
-1002 748 -1456 856 -81 20 -110 31 -79 31 9 0 97 11 195 24 703 97 1599 169
2548 206 690 27 1161 34 3395 51 1242 9 1720 17 2280 39 1157 45 2101 128
2957 260 157 24 225 30 360 30 415 0 1161 36 1653 81 1097 98 1932 222 4150
614 696 123 1380 240 1795 306 l260 41 220 -11 c272 -14 432 -14 645 -1 627
39 1226 165 1950 408 294 99 513 180 1050 389 614 239 816 315 1080 407 313
110 323 113 415 121 1086 89 2114 409 3180 990 272 148 644 373 900 545 156
105 415 212 665 275 589 149 1136 30 1633 -356 410 -319 715 -702 1342 -1684
109 -170 224 -348 255 -395 31 -47 67 -110 79 -140 138 -326 398 -726 715
-1095 257 -300 543 -584 1186 -1175 146 -135 351 -329 455 -432 l191 -187 101
-36 c353 -122 700 -315 1033 -574 235 -182 674 -590 1008 -937 95 -98 249
-253 343 -343 l171 -164 76 -19 c42 -10 111 -21 154 -25 73 -6 77 -5 103 21
21 21 26 33 20 54 -12 50 -46 107 -146 247 -181 254 -238 372 -239 498 0 43 4
67 11 67 17 0 240 -127 409 -233 80 -50 372 -242 650 -427 804 -534 1127 -718
1572 -894 208 -82 372 -134 573 -181 180 -42 192 -46 435 -157 589 -270 798
-337 1075 -345 207 -7 321 20 473 108 275 162 647 798 902 1544 174 510 290
996 510 2143 61 315 129 658 150 762 22 105 40 211 40 235 0 79 29 334 60 524
49 299 105 541 285 1221 268 1019 325 1556 234 2207 l-22 152 41 123 c260 783
7 1624 -784 2612 l-123 153 -93 22 c-277 63 -492 99 -1058 176 -845 115 -1121
165 -1495 272 -381 108 -784 290 -923 415 -87 79 -187 103 -400 95 -155 -5
-289 -28 -516 -87 -65 -17 -121 -28 -124 -25 -3 3 0 5 6 5 6 0 58 36 115 79
210 160 384 263 638 378 342 155 713 269 1396 428 939 219 1277 315 1661 470
129 53 378 173 450 217 36 22 181 65 452 133 660 166 1231 272 2410 451 769
116 876 132 1175 180 840 135 1510 273 2065 427 75 21 95 23 175 15 173 -16
612 -24 893 -17 335 10 687 34 1252 89 228 22 485 47 570 55 635 61 1171 84
1548 67 380 -18 687 -56 972 -121 88 -21 177 -33 300 -41 1074 -70 2289 -377
3760 -949 284 -110 1287 -702 2010 -1186 1053 -704 1863 -1358 2740 -2210 103
-101 166 -152 268 -219 615 -401 1232 -726 2437 -1281 237 -109 584 -269 773
-356 267 -123 361 -162 425 -175 210 -42 472 -134 937 -327 784 -326 1103
-404 1537 -375 108 7 157 5 237 -7 142 -22 436 -30 571 -16 266 29 502 97 713
206 451 232 745 634 816 1118 20 133 21 391 1 522 -32 219 -31 217 -294 750
-341 690 -484 956 -665 1235 -45 69 -99 168 -120 220 -56 137 -167 356 -254
500 -164 274 -316 481 -761 1035 -450 561 -645 830 -812 1120 -80 140 -205
401 -254 530 -21 55 -67 154 -101 220 -249 477 -381 949 -604 2160 -175 949
-253 1256 -417 1653 l-55 133 147 427 c515 1494 739 2060 1086 2737 187 364
196 386 264 594 163 504 367 961 880 1976 422 834 582 1175 745 1585 139 351
247 696 317 1008 36 163 36 164 22 250 -21 130 -16 369 10 527 12 72 57 276
101 455 93 386 117 503 130 655 31 349 -80 583 -343 721 -85 45 -142 52 -492
60 -564 14 -1091 -51 -1740 -216 -403 -102 -767 -219 -1714 -549 -601 -210
-975 -327 -1291 -406 -133 -33 -159 -44 -315 -127 -381 -204 -682 -375 -1635
-930 -1450 -844 -2178 -1209 -3160 -1586 -578 -222 -940 -373 -1840 -765 -983
-428 -1380 -595 -1814 -762 -747 -288 -1430 -499 -2051 -634 -156 -34 -122
-32 -1545 -86 -1656 -63 -2447 -107 -3273 -181 -278 -25 -297 -25 -565 -14
-177 8 -1073 15 -2487 20 -2082 8 -2343 11 -2900 40 -683 35 -1289 93 -1835
176 -696 105 -912 133 -1615 209 -1194 129 -1623 184 -2095 270 -332 61 -624
125 -613 136 20 19 725 304 1403 567 1488 577 1775 690 2231 882 140 59 271
111 290 115 597 128 879 645 738 1355 -59 294 -208 615 -389 835 -31 39 -90
131 -130 205 -347 644 -733 1080 -1605 1815 -125 105 -301 269 -436 404 -424
425 -779 729 -1324 1136 -412 308 -870 620 -1885 1287 l-435 286 -139 41
c-428 128 -787 287 -1531 679 -262 138 -722 368 -855 427 -420 187 -771 298
-1131 359 -122 21 -151 23 -270 15 -690 -46 -1371 -223 -2104 -546 -541 -239
-1066 -534 -2125 -1195 -1173 -732 -1685 -1017 -2275 -1265 -184 -77 -210 -90
-426 -214 -418 -240 -730 -447 -1584 -1049 -430 -303 -777 -538 -1015 -687
-416 -261 -904 -520 -1059 -561 -163 -43 -321 -128 -486 -261 -38 -30 -175
-159 -304 -284 -264 -258 -358 -340 -481 -420 -171 -111 -287 -148 -481 -153
-107 -3 -155 -9 -220 -28 -139 -40 -224 -49 -391 -43 -122 4 -172 11 -248 32
-445 123 -779 492 -831 919 -22 176 21 367 118 528 31 53 90 124 170 207 243
252 337 402 291 464 -31 42 -111 41 -404 -4 -94 -15 -189 -22 -294 -23 -189
-1 -253 15 -381 98 -236 154 -319 235 -389 381 -62 131 -75 195 -74 385 1 265
42 431 256 1030 136 383 185 538 218 698 11 53 32 133 46 177 83 259 9 378
-207 329 -107 -24 -200 -62 -429 -174 l-203 -100 -81 0 c-201 1 -378 75 -526
220 -376 371 -489 1172 -258 1830 188 537 213 730 93 730 -76 0 -189 -83 -479
-351 -104 -96 -227 -207 -273 -246 l-84 -73 -83 0 c-440 0 -824 424 -950 1051
-101 497 -12 973 236 1270 60 72 51 86 -30 45 -179 -90 -407 -100 -633 -26
-217 71 -424 206 -621 407 -160 162 -263 304 -356 489 -36 72 -60 107 -85 124
-77 53 -125 165 -148 345 -9 76 -10 171 -3 390 14 456 12 566 -9 598 -29 45
-63 37 -128 -33 -45 -48 -69 -65 -124 -85 -264 -100 -520 -94 -735 15 -232
117 -456 385 -595 710 -223 522 -300 1176 -200 1702 l7 38 -32 -11 c-19 -7
-103 -83 -218 -199 -103 -103 -216 -209 -252 -235 -82 -59 -203 -121 -277
-140 -71 -19 -192 -19 -260 -1 -63 17 -255 103 -378 169 -511 276 -924 754
-1160 1341 -63 159 -114 326 -146 483 -12 59 -25 112 -29 116 -7 8 -106 -75
-394 -328 -314 -276 -481 -394 -723 -514 -181 -89 -331 -130 -513 -138 -265
-12 -503 54 -730 202 -96 63 -283 248 -347 345 -103 154 -181 341 -220 525
-14 67 -17 144 -17 490 -1 376 -3 413 -19 438 -9 15 -25 27 -35 27 -26 0 -80
-61 -152 -170 -171 -258 -304 -401 -431 -464 l-74 -37 -345 -34 c-544 -53
-646 -60 -960 -59 -226 0 -325 4 -425 18 -315 43 -540 130 -688 265 -106 98
-168 209 -202 365 -23 105 -16 349 14 480 12 50 21 94 21 98 0 27 -40 -5 -123
-99 -205 -232 -448 -452 -629 -569 -149 -96 -334 -174 -483 -205 -139 -29
-336 -9 -472 46 -42 17 -88 25 -168 30 -369 23 -625 120 -829 314 -163 157
-263 362 -296 609 -22 162 -3 427 45 615 6 21 4 27 -8 27 -9 0 -38 -43 -73
-107z"/>
</g>
</svg>
