<?xml version="1.0" standalone="no"?>
<!DOCTYPE svg PUBLIC "-//W3C//DTD SVG 20010904//EN"
 "http://www.w3.org/TR/2001/REC-SVG-20010904/DTD/svg10.dtd">
<svg version="1.0" xmlns="http://www.w3.org/2000/svg"
 width="667.000000pt" height="244.000000pt" viewBox="0 0 667.000000 244.000000"
 preserveAspectRatio="xMidYMid meet">

<g transform="translate(0.000000,244.000000) scale(0.100000,-0.100000)"
fill="#000000" stroke="none">
<path d="M1708 1899 c-18 -7 -37 -29 -57 -70 -39 -78 -55 -158 -48 -241 l6
-66 -52 -13 c-72 -17 -219 -15 -297 5 -41 11 -112 45 -200 96 -150 88 -291
157 -390 191 -75 26 -254 38 -287 20 -54 -28 -32 -145 47 -264 62 -92 80 -142
80 -218 0 -72 -6 -87 -72 -191 -61 -94 -83 -142 -98 -211 -14 -65 -2 -87 48
-87 139 0 309 43 568 145 149 58 334 112 402 117 15 1 89 -7 165 -17 l137 -19
0 -44 c0 -24 -5 -86 -11 -137 -20 -170 9 -202 171 -191 209 15 368 50 495 110
l90 43 95 -8 c52 -5 184 -13 293 -18 109 -5 201 -11 204 -14 3 -3 -17 -32 -45
-64 -60 -70 -80 -108 -88 -166 -7 -53 14 -109 50 -132 23 -15 32 -16 72 -5 94
26 154 99 185 222 6 26 26 64 43 84 l32 37 129 -12 c250 -21 672 -34 950 -28
299 6 371 14 505 51 47 13 99 27 115 31 l30 6 -30 -19 c-39 -25 -192 -185
-206 -216 -24 -53 13 -96 82 -96 67 0 117 22 178 76 72 66 91 95 126 199 15
44 31 84 36 89 4 5 54 21 111 36 57 15 146 39 198 53 52 14 129 30 170 36 41
6 118 25 170 40 52 16 142 41 200 54 232 56 406 125 428 170 27 55 24 71 -13
95 -41 25 -67 31 -169 42 -169 17 -331 66 -447 136 -31 19 -87 41 -125 50
-153 36 -291 76 -604 176 -241 77 -420 98 -855 98 -631 0 -1329 -45 -1713
-111 l-113 -19 -64 39 c-118 71 -326 126 -515 136 -48 3 -97 0 -112 -6z"/>
</g>
</svg>
