<?xml version="1.0" standalone="no"?>
<!DOCTYPE svg PUBLIC "-//W3C//DTD SVG 20010904//EN"
 "http://www.w3.org/TR/2001/REC-SVG-20010904/DTD/svg10.dtd">
<svg version="1.0" xmlns="http://www.w3.org/2000/svg"
 width="450.000000pt" height="211.000000pt" viewBox="0 0 450.000000 211.000000"
 preserveAspectRatio="xMidYMid meet">
<metadata>
Created by potrace 1.16, written by Peter Selinger 2001-2019
</metadata>
<g transform="translate(0.000000,211.000000) scale(0.100000,-0.100000)"
fill="#000000" stroke="none">
<path d="M2217 1524 c-104 -28 -233 -92 -332 -165 l-70 -51 -120 6 c-66 3
-255 9 -420 12 -333 7 -426 -1 -585 -52 -120 -38 -200 -80 -325 -174 -60 -45
-134 -94 -164 -110 -55 -28 -114 -80 -123 -110 -9 -25 23 -67 61 -84 39 -16
154 -50 211 -61 19 -4 62 -18 95 -32 70 -28 162 -48 450 -97 267 -45 416 -62
690 -76 121 -6 331 -18 467 -27 204 -13 267 -14 360 -4 116 12 208 35 208 52
0 11 -28 11 -105 0 -98 -15 -202 -21 -180 -11 11 5 94 16 184 25 192 18 333
46 451 87 117 42 137 43 285 14 72 -14 139 -26 150 -26 17 0 26 15 48 85 27
83 83 169 124 194 16 10 16 12 3 20 -58 36 -58 37 18 56 69 16 76 16 164 -1
124 -24 328 -24 418 0 103 27 178 57 196 77 16 18 15 19 -12 30 -79 31 -168
51 -251 56 -51 3 -93 10 -93 14 0 5 7 9 16 9 33 0 169 76 221 124 54 48 54 50
31 59 -59 23 -278 -16 -487 -88 -99 -33 -112 -35 -235 -35 l-131 0 31 19 c41
25 49 38 34 56 -20 25 -79 17 -191 -24 -97 -36 -112 -39 -185 -35 -43 2 -200
9 -349 14 -385 14 -488 21 -477 32 5 5 81 27 168 49 203 51 192 46 166 65 -63
44 -287 137 -321 133 -3 0 -46 -11 -94 -25z"/>
</g>
</svg>
